{"title":"Sisters.2015.BRRip.480p.x264.AAC-VYTO [P2PDL]","uid":13732904,"size":480984967,"categoryP":"video","categoryS":"movies","magnet":"?xt=urn:btih:9dc117ae79dc33b711b657bacd04f2961fa34f76&amp;dn=Sisters.2015.BRRip.480p.x264.AAC-VYTO+%5BP2PDL%5D&amp;tr=udp%3A%2F%2Ftracker.leechers-paradise.org%3A6969&amp;tr=udp%3A%2F%2Fzer0day.ch%3A1337&amp;tr=udp%3A%2F%2Fopen.demonii.com%3A1337&amp;tr=udp%3A%2F%2Ftracker.coppersurfer.tk%3A6969&amp;tr=udp%3A%2F%2Fexodus.desync.com%3A6969","seeders":1,"leechers":3,"uploader":"VYTOP2PDL","files":7,"time":1457027333,"description":"Sisters.2015.BRRip.480p.x264.AAC-VYTO\r\n\r\n\r\nGenre: Comedy  \nhttp://www.imdb.com/title/tt1850457/\r\n\r\n\r\nFormat                                   : MPEG-4\r\nFile size                                : 451 MiB\r\nDuration                                 : 2h 2mn\r\nOverall bit rate                         : 516 Kbps\r\n\r\nVideo\r\nFormat                                   : AVC\r\nBit rate                                 : 481 Kbps\r\nWidth                                    : 720 pixels\r\nHeight                                   : 304 pixels\r\nDisplay aspect ratio                     : 2.35:1\r\nFrame rate mode                          : Constant\r\nFrame rate                               : 23.976 fps\r\nBit depth                                : 8 bits\r\nStream size                              : 420 MiB (93%)\r\nWriting library                          : x264 \r\n\r\nAudio\r\nFormat                                   : AAC\r\nBit rate                                 : 32.0 Kbps\r\nChannel(s)                               : 2 channels \r\nChannel positions                        : Front: L R \r\nSampling rate                            : 48.0 KHz\r\nStream size                              : 28.0 MiB (6%)\r\nLanguage                                 : English\r\n\r\nSubtitle                                 : Yes (English)\r\n\r\nScreen Shot: (Click to view)\r\n \nhttp://ititli.com/Xwn \nhttp://ititli.com/Xww \nhttp://ititli.com/Xw2 \nhttp://ititli.com/Xw6 \nhttp://ititli.com/Xw8 \nhttp://ititli.com/Xwe \nhttp://ititli.com/Xwj \nhttp://ititli.com/Xwk \nhttp://ititli.com/Xwo\r\n\r\n----------------------------------------------------------------------------------------------------\r\n\r\n\r\nEncoder Notes: Looking For Early Access To Anything You Can Provide WEBDL, DVDScr, DVDR, BluRay,\r\nDirect Audio, Music Releases and Seedboxes. If You Got anything to offer please contact us.\r\n\r\nSupport us by donating BC - 1FgwdzPsd1y25Gea8wP1qni35uGCtmkRCD\r\n\r\nSend some love!\r\nFind us and join us!","torrent":{"xt":"urn:btih:9dc117ae79dc33b711b657bacd04f2961fa34f76","amp;dn":"Sisters.2015.BRRip.480p.x264.AAC-VYTO+%5BP2PDL%5D","amp;tr":["udp%3A%2F%2Ftracker.leechers-paradise.org%3A6969","udp%3A%2F%2Fzer0day.ch%3A1337","udp%3A%2F%2Fopen.demonii.com%3A1337","udp%3A%2F%2Ftracker.coppersurfer.tk%3A6969","udp%3A%2F%2Fexodus.desync.com%3A6969"],"infoHash":"9dc117ae79dc33b711b657bacd04f2961fa34f76","infoHashBuffer":{"type":"Buffer","data":[157,193,23,174,121,220,51,183,17,182,87,186,205,4,242,150,31,163,79,118]},"announce":[],"urlList":[]}}